<?xml version="1.0" encoding="utf-8"?>
<!-- Generator: Adobe Illustrator 19.2.0, SVG Export Plug-In . SVG Version: 6.00 Build 0)  -->
<svg version="1.1" id="Layer_1" xmlns="http://www.w3.org/2000/svg" xmlns:xlink="http://www.w3.org/1999/xlink" x="0px" y="0px"
	 viewBox="0 0 516.9 422.1" style="enable-background:new 0 0 516.9 422.1;" xml:space="preserve">
<style type="text/css">
	.st0{fill:#FFFFFF;}
	.st1{fill:none;}
</style>
<g>
	<path class="st0" d="M2.5,67.3c0.7,1.8,1.2,3.4,1.8,4.9c20,50,40.1,100,59.9,150.1c1.5,3.7,3.2,4.9,7.2,4.9
		c71.3-0.1,142.6-0.1,213.9,0c3.9,0,5.7-1.1,7.2-4.8c19.9-50.1,39.9-100.1,59.9-150.1c0.6-1.6,1.2-3.2,1.8-4.9
		C236.7,67.3,119.8,67.3,2.5,67.3z M274.4,323.1c-26.8,0-48,21.1-48,47.8c0,26.9,21,48.2,47.5,48.2c27.2,0,48.5-20.9,48.5-47.8
		C322.4,344.2,301.4,323.1,274.4,323.1z M162.5,371.2c0.1-26.1-21.1-48-46.8-48.1c-27.4-0.1-49.2,20.4-49.3,46.4
		c-0.1,27.7,20.4,49.5,46.7,49.6C141,419.2,162.4,398.5,162.5,371.2z"/>
	<path d="M514.4,35.1c-21.5,0-43,0.1-64.5-0.1c-3.8,0-5.4,1.1-6.9,4.6c-35.8,82-71.7,164-107.4,246c-1.9,4.3-4.1,5.6-8.7,5.6
		c-84.7-0.1-169.3-0.1-254-0.1c-2,0-3.9,0-6.2,0c0-10.7,0-20.9,0-32c1.8,0,3.7,0,5.6,0c78,0,156,0,234,0.1c4,0,6.1-1.1,7.7-4.9
		c35.7-82.1,71.7-164,107.4-246.1c1.7-4,3.7-5.2,8-5.2c28.3,0.2,56.7,0.1,85,0.1C514.4,13.8,514.4,24.5,514.4,35.1z"/>
	<path d="M2.5,67.3c117.3,0,234.2,0,351.8,0c-0.7,1.8-1.2,3.4-1.8,4.9c-20,50-40.1,100-59.9,150.1c-1.5,3.7-3.3,4.8-7.2,4.8
		c-71.3-0.1-142.6-0.1-213.9,0c-4,0-5.7-1.2-7.2-4.9C44.3,172.3,24.3,122.3,4.3,72.2C3.7,70.7,3.2,69.2,2.5,67.3z M50.3,99.4
		c0.4,1.3,0.6,2.4,1,3.4c11.8,29.6,23.7,59.2,35.4,88.9c1.3,3.3,3.4,3.4,6.2,3.4c57,0,113.9-0.1,170.9,0c3.4,0,5.2-0.8,6.6-4.3
		c11.4-29.1,23.1-58.1,34.7-87.1c0.5-1.3,0.9-2.8,1.5-4.5C221,99.4,135.8,99.4,50.3,99.4z"/>
	<path d="M274.4,323.1c27,0,48,21.1,48,48.2c0,26.9-21.2,47.8-48.5,47.8c-26.5,0-47.5-21.3-47.5-48.2
		C226.4,344.2,247.6,323.1,274.4,323.1z M274.3,386.9c8.7,0.1,15.9-7.1,15.9-15.7c0-8.7-7.1-15.9-15.7-15.9c-8.7,0-15.9,7.1-16,15.7
		C258.5,379.7,265.6,386.9,274.3,386.9z"/>
	<path d="M162.5,371.2c-0.1,27.3-21.5,48-49.5,47.9c-26.3-0.1-46.8-21.9-46.7-49.6c0.1-26,22-46.5,49.3-46.4
		C141.4,323.2,162.6,345.1,162.5,371.2z M130.3,371.3c0.1-8.6-7.1-15.9-15.7-16c-8.7-0.1-15.9,7-16,15.7c-0.1,8.7,7,15.9,15.7,16
		C122.9,387,130.2,379.9,130.3,371.3z"/>
	<path class="st1" d="M50.3,99.4c85.5,0,170.7,0,256.2,0c-0.6,1.7-1,3.1-1.5,4.5c-11.6,29-23.3,58-34.7,87.1
		c-1.4,3.4-3.2,4.3-6.6,4.3c-57-0.1-113.9-0.1-170.9,0c-2.8,0-4.9,0-6.2-3.4c-11.7-29.7-23.6-59.3-35.4-88.9
		C50.9,101.8,50.7,100.7,50.3,99.4z"/>
	<path class="st1" d="M274.3,386.9c-8.7-0.1-15.8-7.3-15.8-15.9c0.1-8.6,7.3-15.8,16-15.7c8.7,0,15.8,7.2,15.7,15.9
		C290.2,379.9,283,387,274.3,386.9z"/>
	<path class="st1" d="M130.3,371.3c-0.1,8.6-7.4,15.7-16.1,15.7c-8.7-0.1-15.8-7.3-15.7-16c0.1-8.7,7.3-15.8,16-15.7
		C123.2,355.4,130.4,362.7,130.3,371.3z"/>
</g>
</svg>
