<?xml version="1.0" encoding="utf-8"?>
<!-- Generator: Adobe Illustrator 19.2.0, SVG Export Plug-In . SVG Version: 6.00 Build 0)  -->
<svg version="1.1" id="Layer_1" xmlns="http://www.w3.org/2000/svg" xmlns:xlink="http://www.w3.org/1999/xlink" x="0px" y="0px"
	 viewBox="0 0 332.6 281.2" style="enable-background:new 0 0 332.6 281.2;" xml:space="preserve">
<g>
	<g>
		<path d="M56.2,174.4L56.2,174.4l161.6,7.3l3.9,12.7H42.5c-4.4,0-7.8,3.4-7.8,7.8s3.9,8.3,8.3,8.3h190.3c3,0,5.4-1.4,6.9-3.4
			c1.5-1.9,2-4.9,1-7.3l-7.8-24l0,0l50.7-156.7h37.7c4.4,0,8.3-3.9,8.3-8.3s-3.9-8.3-8.3-8.3h-46c-4.4,0-8.3,8.3-8.3,8.3l-11,28.9
			L23.9,54.4c-7.3,0.5-14.2,4.4-18.1,10.8c0,0.5,0,0.5,0,0.5c-3.9,6.9-4.4,14.7-1,21.1l31.8,74.9c0-0.5,0-0.5,0,0
			C40.1,169,47.4,173.9,56.2,174.4z M52.2,154.3L20.4,79.4c-0.5,0-0.5-0.5-0.5-0.5c-0.5-1.5-0.5-3.5,0.5-4.9s2.4-2.4,3.9-2.4h0.5
			L253,57.4l0,0L220.2,163c-0.9,0.5-1.9,1-2.9,2l-160.6-7.3C54.8,157.7,52.8,156.3,52.2,154.3z"/>
	</g>
	<g>
		<path d="M189.9,249.3c0,16.2,13.2,29.4,29.4,29.4c16.2,0,29.4-13.2,29.4-29.4c0-16.2-13.2-29.4-29.4-29.4
			C203.1,219.9,189.9,232.6,189.9,249.3z M207.1,249.3c0-6.8,5.3-12.2,12.2-12.2c6.8,0,12.2,5.4,12.2,12.2c0,6.8-5.3,12.2-12.2,12.2
			S206.5,255.7,207.1,249.3z"/>
	</g>
	<g>
		<path d="M34.2,249.3c0,16.2,13.2,29.4,29.4,29.4c16.2,0,29.4-13.2,29.4-29.4c0-16.2-13.2-29.4-29.4-29.4S34.2,232.6,34.2,249.3z
			 M51.4,249.3c0-6.8,5.3-12.2,12.2-12.2c6.8,0,12.2,5.4,12.2,12.2c0,6.8-5.3,12.2-12.2,12.2S51.3,255.7,51.4,249.3z"/>
	</g>
</g>
</svg>
