<?xml version="1.0" encoding="utf-8"?>
<!-- Generator: Adobe Illustrator 19.2.0, SVG Export Plug-In . SVG Version: 6.00 Build 0)  -->
<svg version="1.1" id="Layer_1" xmlns="http://www.w3.org/2000/svg" xmlns:xlink="http://www.w3.org/1999/xlink" x="0px" y="0px"
	 viewBox="0 0 511.8 511.9" style="enable-background:new 0 0 511.8 511.9;" xml:space="preserve">
<style type="text/css">
	.st0{fill:none;}
	.st1{fill:#E1E1E1;}
</style>
<g>
	<path class="st0" d="M0,511.9C0,341.3,0,170.7,0,0c170.5,0,341.1,0,511.8,0c0,170.6,0,341.2,0,511.9
		C341.3,511.9,170.7,511.9,0,511.9z M294.5,195.2c0-15.9-0.3-31.1,0.1-46.2c0.4-13.4,7.1-19.5,20.6-19.8c10.8-0.2,21.7,0,32.5,0
		c4.6,0,9.2,0,14,0c0-25,0-49.4,0-74c-0.9-0.1-1.5-0.3-2.1-0.3c-24,0-48-0.3-72,0.1c-12.4,0.2-24.5,2.7-35.8,8
		c-30.2,14-43.8,39.5-46.6,71.1c-1.6,18.2-0.7,36.6-1,55c0,1.9,0,3.8,0,6.2c-14.6,0-28.3,0-42.4,0c0,25.7,0,50.9,0,76.7
		c14.2,0,28.1,0,42.6,0c0,72.5,0,144.4,0,216.4c30.2,0,59.7,0,89.9,0c0-72.2,0-144.1,0-216.5c20.5,0,40.5,0,60.9,0
		c2.6-25.7,5.2-50.9,7.9-76.7C340.1,195.2,317.6,195.2,294.5,195.2z"/>
	<path class="st1" d="M294.5,195.2c23.1,0,45.5,0,68.6,0c-2.6,25.8-5.2,51-7.9,76.7c-20.4,0-40.3,0-60.9,0c0,72.4,0,144.3,0,216.5
		c-30.2,0-59.8,0-89.9,0c0-72.1,0-144,0-216.4c-14.5,0-28.4,0-42.6,0c0-25.8,0-51,0-76.7c14.1,0,27.8,0,42.4,0c0-2.4,0-4.3,0-6.2
		c0.2-18.3-0.6-36.7,1-55C208,102.4,221.6,77,251.8,63c11.3-5.3,23.4-7.8,35.8-8c24-0.3,48-0.1,72-0.1c0.6,0,1.3,0.1,2.1,0.3
		c0,24.6,0,49,0,74c-4.8,0-9.4,0-14,0c-10.8,0-21.7-0.1-32.5,0c-13.5,0.2-20.2,6.4-20.6,19.8C294.2,164.1,294.5,179.2,294.5,195.2z"
		/>
</g>
</svg>
