<?xml version="1.0" encoding="utf-8"?>
<!-- Generator: Adobe Illustrator 19.2.0, SVG Export Plug-In . SVG Version: 6.00 Build 0)  -->
<svg version="1.1"
	 id="svg2" xmlns:cc="http://creativecommons.org/ns#" xmlns:dc="http://purl.org/dc/elements/1.1/" xmlns:rdf="http://www.w3.org/1999/02/22-rdf-syntax-ns#"
	 xmlns="http://www.w3.org/2000/svg" xmlns:xlink="http://www.w3.org/1999/xlink" x="0px" y="0px" viewBox="0 0 270 270"
	 style="enable-background:new 0 0 270 270;" xml:space="preserve">
<style type="text/css">
	.st0{fill:#CCCCCC;}
	.st1{fill:#FFFFFF;}
</style>
<path class="st0" d="M245,270H25c-13.8,0-25-11.2-25-25V25C0,11.2,11.2,0,25,0h220c13.8,0,25,11.2,25,25v220
	C270,258.8,258.8,270,245,270z"/>
<path class="st0" d="M-128,256h-220c-13.8,0-25-11.2-25-25V11c0-13.8,11.2-25,25-25h220c13.8,0,25,11.2,25,25v220
	C-103,244.8-114.2,256-128,256z"/>
<g id="g10_1_" transform="matrix(1.3333 0 0 -1.3333 0 150.67)">
	<g id="g12_1_" transform="scale(.1)">
		<g id="g14_1_">
			<g>
				<g id="g16_1_">
					<path id="path22_1_" class="st1" d="M-1113.1,639.3c-49.4-21.9-102.6-36.8-158.3-43.4c56.9,34.1,100.6,88.2,121.2,152.5
						c-53.3-31.6-112.2-54.5-175.1-66.9c-50.3,53.6-121.9,87.1-201.2,87.1c-152.3,0-275.7-123.4-275.7-275.7
						c0-21.6,2.4-42.7,7.1-62.8c-229.1,11.5-432.3,121.3-568.3,288.1c-23.7-40.7-37.3-88.1-37.3-138.6c0-95.7,48.7-180,122.7-229.5
						c-45.2,1.4-87.7,13.8-124.9,34.5c0-1.2,0-2.3,0-3.5c0-133.6,95-245,221.2-270.4c-23.1-6.3-47.5-9.6-72.6-9.6
						c-17.8,0-35,1.7-51.9,4.9c35.1-109.5,136.9-189.2,257.6-191.5c-94.4-74-213.3-118-342.5-118c-22.2,0-44.2,1.3-65.8,3.8
						c122.1-78.2,267-123.9,422.7-123.9c507.1,0,784.4,420.1,784.4,784.4c0,11.9-0.3,23.8-0.8,35.6
						C-1196.9,535.5-1150.1,584-1113.1,639.3"/>
				</g>
			</g>
		</g>
	</g>
</g>
<g>
	<path class="st1" d="M181.1,34.7c-0.5-0.1-0.8-0.1-1.1-0.1c-10.9,0-21.8-0.2-32.7,0c-7.1,0.1-14,1.7-20.3,5.3
		c-12.2,7.1-17.5,18.4-18.6,31.9c-0.6,8.3-0.3,16.6-0.4,24.9c0,0.9,0,1.8,0,3c-6.8,0-13.2,0-19.7,0c0,12,0,23.6,0,35.5
		c6.6,0,13,0,19.7,0c0,33.6,0,66.9,0,100.3c14,0,27.8,0,41.8,0c0-33.5,0-66.8,0-100.4c9.5,0,18.7,0,28.2,0
		c1.2-11.9,2.4-23.6,3.7-35.5c-10.7,0-21.2,0-31.8,0c0-7.7-0.3-15.2,0.1-22.6c0.2-5.2,3.7-7.9,9-7.9c4.8,0,9.5,0,14.3,0
		c2.6,0,5.2,0,7.8,0C181.1,57.5,181.1,46.2,181.1,34.7z"/>
	<path class="st1" d="M181.1,34.7c0,11.5,0,22.8,0,34.3c-2.7,0-5.2,0-7.8,0c-4.8,0-9.5,0-14.3,0c-5.3,0-8.7,2.8-9,7.9
		c-0.3,7.4-0.1,14.9-0.1,22.6c10.6,0,21.1,0,31.8,0c-1.2,12-2.4,23.6-3.7,35.5c-9.4,0-18.7,0-28.2,0c0,33.6,0,66.9,0,100.4
		c-14,0-27.8,0-41.8,0c0-33.4,0-66.8,0-100.3c-6.7,0-13.1,0-19.7,0c0-11.9,0-23.5,0-35.5c6.5,0,13,0,19.7,0c0-1.2,0-2.1,0-3
		c0.1-8.3-0.3-16.6,0.4-24.9c1.1-13.5,6.4-24.8,18.6-31.9c6.3-3.6,13.2-5.2,20.3-5.3c10.9-0.2,21.8,0,32.7,0
		C180.3,34.6,180.6,34.7,181.1,34.7z"/>
</g>
</svg>
