<?xml version="1.0" encoding="utf-8"?>
<!-- Generator: Adobe Illustrator 19.2.0, SVG Export Plug-In . SVG Version: 6.00 Build 0)  -->
<svg version="1.1" id="Layer_1" xmlns="http://www.w3.org/2000/svg" xmlns:xlink="http://www.w3.org/1999/xlink" x="0px" y="0px"
	 viewBox="0 0 270 270" style="enable-background:new 0 0 270 270;" xml:space="preserve">
<style type="text/css">
	.st0{fill:#CCCCCC;}
	.st1{fill:#FFFFFF;}
</style>
<path class="st0" d="M245,270H25c-13.8,0-25-11.2-25-25V25C0,11.2,11.2,0,25,0h220c13.8,0,25,11.2,25,25v220
	C270,258.8,258.8,270,245,270z"/>
<g id="tHQIbb_1_">
	<g>
		<path class="st1" d="M39.6,209.1c0-49.4,0-98.8,0-148.1c0.1-0.5,0.3-1,0.4-1.6c1.5-7.7,5.6-13.6,12.7-17c2.7-1.3,5.6-1.8,8.5-2.7
			c49.1,0,98.3,0,147.5,0c0.7,0.2,1.4,0.3,2,0.5c9.2,2,15.5,7.3,18.4,16.3c0.5,1.5,0.8,3,1.2,4.5c0,49.4,0,98.8,0,148.1
			c-0.2,0.6-0.4,1.1-0.5,1.7c-1.6,7.7-5.6,13.5-12.7,16.9c-2.7,1.3-5.6,1.8-8.5,2.7c-49.3,0-98.5,0-147.8,0c-0.5-0.1-1-0.3-1.6-0.4
			c-9.8-2.1-16.3-7.8-18.9-17.7C40.2,211.2,39.9,210.1,39.6,209.1z M192.1,120.4c0.1,0.6,0.2,1.1,0.4,1.6c0.5,2.7,1.3,5.4,1.6,8.1
			c1.7,16-2.5,30.4-12.8,42.8c-8.2,9.8-18.6,16.3-31.1,19.4c-12.8,3.2-25.4,2.3-37.6-2.5c-7.1-2.8-13.3-6.9-18.8-12.1
			c-4.2-4-7.8-8.6-10.6-13.7c-2.6-4.7-4.5-9.7-5.7-15c-1.6-7.4-1.8-14.9-0.4-22.4c0.4-2,0.9-4,1.3-6.1c-5.9,0-11.6,0-17.3,0
			c-0.1,0.5-0.1,1-0.1,1.4c0,26.2,0,52.3,0,78.5c0,5.1,3.2,8.2,8.3,8.2c43.8,0,87.5,0,131.3,0c5.3,0,8.4-3.1,8.4-8.4c0-26,0-52,0-78
			c0-0.5,0-1.1,0-1.6C203.1,120.4,197.7,120.4,192.1,120.4z M136.1,171.7c1.5-0.2,4-0.3,6.4-0.8c2.2-0.4,4.4-1.1,6.6-1.9
			c14.4-5.3,24-18.7,24.3-34c0.2-9.4-3-17.7-9.1-24.7c-6.4-7.3-14.6-11.5-24.2-12.7c-9.6-1.2-18.5,0.8-26.5,6.1
			c-8,5.3-13.3,12.7-15.6,22.1c-2.9,12-0.2,22.9,7.7,32.1C113.3,167.2,123.3,171.5,136.1,171.7z M189.3,98.5c3.4,0,6.8,0,10.2,0
			c5.8-0.1,9.3-3.5,9.3-9.3c0-6.3,0-12.6,0-18.9c0-5.9-3.5-9.5-9.4-9.5c-6.6,0-13.2,0-19.8,0c-6,0-9.5,3.5-9.5,9.5
			c0,6.3,0,12.6,0,18.9c0,5.9,3.4,9.4,9.3,9.4C182.7,98.6,185.9,98.5,189.3,98.5z"/>
	</g>
</g>
</svg>
