<?xml version="1.0" encoding="utf-8"?>
<!-- Generator: Adobe Illustrator 19.2.0, SVG Export Plug-In . SVG Version: 6.00 Build 0)  -->
<svg version="1.1" id="Layer_1" xmlns="http://www.w3.org/2000/svg" xmlns:xlink="http://www.w3.org/1999/xlink" x="0px" y="0px"
	 viewBox="0 0 150.2 438.5" style="enable-background:new 0 0 150.2 438.5;" xml:space="preserve">
<style type="text/css">
	.st0{fill:none;}
	.st1{fill:#FFFFFF;}
</style>
<rect x="0" y="0" class="st0" width="148.4" height="438.5"/>
<g>
	<polygon class="st1" points="0,438.5 9,424.5 18,410.7 36.1,383 54.3,355.3 72.6,327.8 90.9,300.2 109.3,272.7 146.3,217.8 
		146.3,220.6 109.3,165.7 90.9,138.2 72.6,110.7 54.3,83.1 36.1,55.5 18,27.8 9,13.9 0,0 9.6,13.5 19.1,27 38.1,54.1 57,81.3 
		75.8,108.5 94.5,135.8 113.2,163.1 150.4,217.8 151.4,219.2 150.4,220.6 113.2,275.4 94.5,302.7 75.8,329.9 57,357.2 38.1,384.3 
		19.1,411.4 9.6,425 	"/>
</g>
</svg>
