<?xml version="1.0" encoding="utf-8"?>
<!-- Generator: Adobe Illustrator 19.2.0, SVG Export Plug-In . SVG Version: 6.00 Build 0)  -->
<svg version="1.1" id="Layer_1" xmlns="http://www.w3.org/2000/svg" xmlns:xlink="http://www.w3.org/1999/xlink" x="0px" y="0px"
	 viewBox="0 0 511.8 511.9" style="enable-background:new 0 0 511.8 511.9;" xml:space="preserve">
<style type="text/css">
	.st0{fill:none;}
	.st1{fill:#FFFAF0;}
</style>
<g>
	<path class="st0" d="M632.9,498.8c0-170.6,0-341.2,0-511.9c170.5,0,341.1,0,511.8,0c0,170.6,0,341.2,0,511.9
		C974.2,498.8,803.6,498.8,632.9,498.8z M927.4,182.1c0-15.9-0.3-31.1,0.1-46.2c0.4-13.4,7.1-19.5,20.6-19.8c10.8-0.2,21.7,0,32.5,0
		c4.6,0,9.2,0,14,0c0-25,0-49.4,0-74c-0.9-0.1-1.5-0.3-2.1-0.3c-24,0-48-0.3-72,0.1c-12.4,0.2-24.5,2.7-35.8,8
		c-30.2,14-43.8,39.5-46.6,71.1c-1.6,18.2-0.7,36.6-1,55c0,1.9,0,3.8,0,6.2c-14.6,0-28.3,0-42.4,0c0,25.7,0,50.9,0,76.7
		c14.2,0,28.1,0,42.6,0c0,72.5,0,144.4,0,216.4c30.2,0,59.7,0,89.9,0c0-72.2,0-144.1,0-216.5c20.5,0,40.5,0,60.9,0
		c2.6-25.7,5.2-50.9,7.9-76.7C973,182.1,950.5,182.1,927.4,182.1z"/>
	<path class="st1" d="M927.4,182.1c23.1,0,45.5,0,68.6,0c-2.6,25.8-5.2,51-7.9,76.7c-20.4,0-40.3,0-60.9,0c0,72.4,0,144.3,0,216.5
		c-30.2,0-59.8,0-89.9,0c0-72.1,0-144,0-216.4c-14.5,0-28.4,0-42.6,0c0-25.8,0-51,0-76.7c14.1,0,27.8,0,42.4,0c0-2.4,0-4.3,0-6.2
		c0.2-18.3-0.6-36.7,1-55c2.8-31.7,16.4-57.1,46.6-71.1c11.3-5.3,23.4-7.8,35.8-8c24-0.3,48-0.1,72-0.1c0.6,0,1.3,0.1,2.1,0.3
		c0,24.6,0,49,0,74c-4.8,0-9.4,0-14,0c-10.8,0-21.7-0.1-32.5,0c-13.5,0.2-20.2,6.4-20.6,19.8C927.1,151,927.4,166.1,927.4,182.1z"/>
</g>
<g id="g10_1_" transform="matrix(1.3333 0 0 -1.3333 0 150.67)">
	<g id="g12_1_" transform="scale(.1)">
		<g id="g14_1_">
			<g>
				<g id="g16_1_">
					<path id="path22_1_" class="st1" d="M3371.6,111.3c-106.8-47.3-221.8-79.5-342.2-93.8c123,73.7,217.4,190.6,262,329.6
						c-115.2-68.3-242.5-117.8-378.5-144.6c-108.7,115.9-263.5,188.3-434.9,188.3c-329.2,0-595.9-266.7-595.9-595.9
						c0-46.7,5.2-92.3,15.3-135.7C1402.3-316.1,963.1-78.7,669.1,281.8c-51.2-88-80.6-190.4-80.6-299.6
						c0-206.8,105.3-389.1,265.2-496c-97.7,3-189.6,29.8-270,74.6c0-2.6,0-5,0-7.6c0-288.8,205.3-529.6,478.1-584.5
						c-49.9-13.6-102.7-20.7-156.9-20.7c-38.5,0-75.7,3.7-112.2,10.6c75.9-236.7,295.9-408.9,556.8-413.9
						c-204-159.9-461-255-740.3-255c-48,0-95.5,2.8-142.2,8.2c263.9-169,577.1-267.8,913.6-267.8c1096.1,0,1695.4,908,1695.4,1695.4
						c0,25.7-0.6,51.4-1.7,76.9C3190.4-113.1,3291.6-8.3,3371.6,111.3"/>
				</g>
			</g>
		</g>
	</g>
</g>
<rect class="st0" width="511.8" height="511.9"/>
</svg>
