# This file uses centimeters as units for non-parametric coordinates.

mtllib M.mtl
g default
v -147.175835 -120.927141 25.935481
v -147.175835 -86.427141 25.935481
v -120.775936 -86.427141 25.935481
v -120.775936 48.273062 25.935481
v -147.175835 48.273062 25.935481
v -147.175835 82.773058 25.935481
v -45.307133 82.773058 25.935481
v -0.447834 -36.702043 25.935481
v 46.024364 82.773058 25.935481
v 149.224071 82.773058 25.935481
v 149.224071 48.273062 25.935481
v 122.824169 48.273062 25.935481
v 122.824169 -86.427141 25.935481
v 149.523876 -86.427141 25.935481
v 149.523876 -120.927141 25.935481
v 44.524364 -120.927141 25.935481
v 44.524364 -86.427141 25.935481
v 71.224071 -86.427141 25.935481
v 71.224071 48.273062 25.935481
v 67.985271 48.273062 25.935481
v 2.824169 -120.927141 25.935481
v -19.427326 -120.927141 25.935481
v -82.975636 48.273062 25.935481
v -87.775936 48.273062 25.935481
v -87.775936 -86.427141 25.935481
v -61.075733 -86.427141 25.935481
v -61.075733 -120.927141 25.935481
v -147.175835 -120.927141 -24.064519
v -147.175835 -86.427141 -24.064519
v -120.775936 -86.427141 -24.064519
v -120.775936 48.273062 -24.064519
v -147.175835 48.273062 -24.064519
v -147.175835 82.773058 -24.064519
v -45.307133 82.773058 -24.064519
v -0.447834 -36.702043 -24.064519
v 46.024364 82.773058 -24.064519
v 149.224071 82.773058 -24.064519
v 149.224071 48.273062 -24.064519
v 122.824169 48.273062 -24.064519
v 122.824169 -86.427141 -24.064519
v 149.523876 -86.427141 -24.064519
v 149.523876 -120.927141 -24.064519
v 44.524364 -120.927141 -24.064519
v 44.524364 -86.427141 -24.064519
v 71.224071 -86.427141 -24.064519
v 71.224071 48.273062 -24.064519
v 67.985271 48.273062 -24.064519
v 2.824169 -120.927141 -24.064519
v -19.427326 -120.927141 -24.064519
v -82.975636 48.273062 -24.064519
v -87.775936 48.273062 -24.064519
v -87.775936 -86.427141 -24.064519
v -61.075733 -86.427141 -24.064519
v -61.075733 -120.927141 -24.064519
v -147.175835 -120.927141 25.935481
v -147.175835 -86.427141 25.935481
v -120.775936 -86.427141 25.935481
v -120.775936 48.273062 25.935481
v -147.175835 48.273062 25.935481
v -147.175835 82.773058 25.935481
v -45.307133 82.773058 25.935481
v -0.447834 -36.702043 25.935481
v 46.024364 82.773058 25.935481
v 149.224071 82.773058 25.935481
v 149.224071 48.273062 25.935481
v 122.824169 48.273062 25.935481
v 122.824169 -86.427141 25.935481
v 149.523876 -86.427141 25.935481
v 149.523876 -120.927141 25.935481
v 44.524364 -120.927141 25.935481
v 44.524364 -86.427141 25.935481
v 71.224071 -86.427141 25.935481
v 71.224071 48.273062 25.935481
v 67.985271 48.273062 25.935481
v 2.824169 -120.927141 25.935481
v -19.427326 -120.927141 25.935481
v -82.975636 48.273062 25.935481
v -87.775936 48.273062 25.935481
v -87.775936 -86.427141 25.935481
v -61.075733 -86.427141 25.935481
v -61.075733 -120.927141 25.935481
v -147.175835 -120.927141 -24.064519
v -147.175835 -86.427141 -24.064519
v -120.775936 -86.427141 -24.064519
v -120.775936 48.273062 -24.064519
v -147.175835 48.273062 -24.064519
v -147.175835 82.773058 -24.064519
v -45.307133 82.773058 -24.064519
v -0.447834 -36.702043 -24.064519
v 46.024364 82.773058 -24.064519
v 149.224071 82.773058 -24.064519
v 149.224071 48.273062 -24.064519
v 122.824169 48.273062 -24.064519
v 122.824169 -86.427141 -24.064519
v 149.523876 -86.427141 -24.064519
v 149.523876 -120.927141 -24.064519
v 44.524364 -120.927141 -24.064519
v 44.524364 -86.427141 -24.064519
v 71.224071 -86.427141 -24.064519
v 71.224071 48.273062 -24.064519
v 67.985271 48.273062 -24.064519
v 2.824169 -120.927141 -24.064519
v -19.427326 -120.927141 -24.064519
v -82.975636 48.273062 -24.064519
v -87.775936 48.273062 -24.064519
v -87.775936 -86.427141 -24.064519
v -61.075733 -86.427141 -24.064519
v -61.075733 -120.927141 -24.064519
vt 1.000000 1.000000
vt 0.000000 1.000000
vt 0.017698 1.000000
vt 0.031240 1.000000
vt 0.100337 1.000000
vt 0.113880 1.000000
vt 0.131577 1.000000
vt 0.183833 1.000000
vt 0.249298 1.000000
vt 0.315058 1.000000
vt 0.367997 1.000000
vt 0.385694 1.000000
vt 0.399237 1.000000
vt 0.468334 1.000000
vt 0.482030 1.000000
vt 0.499728 1.000000
vt 0.553589 1.000000
vt 0.571287 1.000000
vt 0.584983 1.000000
vt 0.654080 1.000000
vt 0.655742 1.000000
vt 0.748750 1.000000
vt 0.760165 1.000000
vt 0.852879 1.000000
vt 0.855342 1.000000
vt 0.924439 1.000000
vt 0.938136 1.000000
vt 0.955833 1.000000
vt 1.000000 0.000000
vt 0.000000 0.000000
vt 0.017698 0.000000
vt 0.031240 0.000000
vt 0.100337 0.000000
vt 0.113880 0.000000
vt 0.131577 0.000000
vt 0.183833 0.000000
vt 0.249298 0.000000
vt 0.315058 0.000000
vt 0.367997 0.000000
vt 0.385694 0.000000
vt 0.399237 0.000000
vt 0.468334 0.000000
vt 0.482030 0.000000
vt 0.499728 0.000000
vt 0.553589 0.000000
vt 0.571287 0.000000
vt 0.584983 0.000000
vt 0.654080 0.000000
vt 0.655742 0.000000
vt 0.748750 0.000000
vt 0.760165 0.000000
vt 0.852879 0.000000
vt 0.855342 0.000000
vt 0.924439 0.000000
vt 0.938136 0.000000
vt 0.955833 0.000000
vt 0.000000 0.313447
vt 0.000000 0.429726
vt 0.088979 0.429726
vt 0.088979 0.883721
vt 0.000000 0.883721
vt 0.000000 1.000000
vt 0.343339 1.000000
vt 0.494534 0.597320
vt 0.651164 1.000000
vt 0.998990 1.000000
vt 0.998990 0.883721
vt 0.910011 0.883721
vt 0.910011 0.429726
vt 1.000000 0.429726
vt 1.000000 0.313447
vt 0.646109 0.313447
vt 0.646109 0.429726
vt 0.736097 0.429726
vt 0.736097 0.883721
vt 0.725181 0.883721
vt 0.505562 0.313447
vt 0.430565 0.313447
vt 0.216381 0.883721
vt 0.200202 0.883721
vt 0.200202 0.429726
vt 0.290193 0.429726
vt 0.290193 0.313447
vt 0.000000 0.313447
vt 0.000000 0.429726
vt 0.088979 0.429726
vt 0.088979 0.883721
vt 0.000000 0.883721
vt 0.000000 1.000000
vt 0.343339 1.000000
vt 0.494534 0.597320
vt 0.651164 1.000000
vt 0.998990 1.000000
vt 0.998990 0.883721
vt 0.910011 0.883721
vt 0.910011 0.429726
vt 1.000000 0.429726
vt 1.000000 0.313447
vt 0.646109 0.313447
vt 0.646109 0.429726
vt 0.736097 0.429726
vt 0.736097 0.883721
vt 0.725181 0.883721
vt 0.505562 0.313447
vt 0.430565 0.313447
vt 0.216381 0.883721
vt 0.200202 0.883721
vt 0.200202 0.429726
vt 0.290193 0.429726
vt 0.290193 0.313447
vn -1.000000 0.000000 0.000000
vn -1.000000 0.000000 0.000000
vn -1.000000 0.000000 0.000000
vn -1.000000 0.000000 0.000000
vn 0.000000 1.000000 0.000000
vn 0.000000 1.000000 0.000000
vn 0.000000 1.000000 0.000000
vn 0.000000 1.000000 0.000000
vn -1.000000 0.000000 0.000000
vn -1.000000 0.000000 0.000000
vn -1.000000 0.000000 0.000000
vn -1.000000 0.000000 0.000000
vn 0.000000 -1.000000 0.000000
vn 0.000000 -1.000000 0.000000
vn 0.000000 -1.000000 0.000000
vn 0.000000 -1.000000 0.000000
vn -1.000000 0.000000 0.000000
vn -1.000000 0.000000 0.000000
vn -1.000000 0.000000 0.000000
vn -1.000000 0.000000 0.000000
vn 0.000000 1.000000 0.000000
vn 0.000000 1.000000 0.000000
vn 0.000000 1.000000 0.000000
vn 0.000000 1.000000 0.000000
vn 0.936185 0.351509 0.000000
vn 0.936185 0.351509 0.000000
vn 0.936185 0.351509 0.000000
vn 0.936185 0.351509 0.000000
vn -0.931979 0.362512 0.000000
vn -0.931979 0.362512 0.000000
vn -0.931979 0.362512 0.000000
vn -0.931979 0.362512 0.000000
vn 0.000000 1.000000 0.000000
vn 0.000000 1.000000 0.000000
vn 0.000000 1.000000 0.000000
vn 0.000000 1.000000 0.000000
vn 1.000000 0.000000 0.000000
vn 1.000000 0.000000 0.000000
vn 1.000000 0.000000 0.000000
vn 1.000000 0.000000 0.000000
vn 0.000000 -1.000000 0.000000
vn 0.000000 -1.000000 0.000000
vn 0.000000 -1.000000 0.000000
vn 0.000000 -1.000000 0.000000
vn 1.000000 0.000000 0.000000
vn 1.000000 0.000000 0.000000
vn 1.000000 0.000000 0.000000
vn 1.000000 0.000000 0.000000
vn 0.000000 1.000000 0.000000
vn 0.000000 1.000000 0.000000
vn 0.000000 1.000000 0.000000
vn 0.000000 1.000000 0.000000
vn 1.000000 0.000000 0.000000
vn 1.000000 0.000000 0.000000
vn 1.000000 0.000000 0.000000
vn 1.000000 0.000000 0.000000
vn 0.000000 -1.000000 0.000000
vn 0.000000 -1.000000 0.000000
vn 0.000000 -1.000000 0.000000
vn 0.000000 -1.000000 0.000000
vn -1.000000 0.000000 0.000000
vn -1.000000 0.000000 0.000000
vn -1.000000 0.000000 0.000000
vn -1.000000 0.000000 0.000000
vn 0.000000 1.000000 0.000000
vn 0.000000 1.000000 0.000000
vn 0.000000 1.000000 0.000000
vn 0.000000 1.000000 0.000000
vn -1.000000 0.000000 0.000000
vn -1.000000 0.000000 0.000000
vn -1.000000 0.000000 0.000000
vn -1.000000 0.000000 0.000000
vn 0.000000 -1.000000 0.000000
vn 0.000000 -1.000000 0.000000
vn 0.000000 -1.000000 0.000000
vn 0.000000 -1.000000 0.000000
vn 0.933190 -0.359383 0.000000
vn 0.933190 -0.359383 0.000000
vn 0.933190 -0.359383 0.000000
vn 0.933190 -0.359383 0.000000
vn 0.000000 -1.000000 0.000000
vn 0.000000 -1.000000 0.000000
vn 0.000000 -1.000000 0.000000
vn 0.000000 -1.000000 0.000000
vn -0.936150 -0.351600 0.000000
vn -0.936150 -0.351600 0.000000
vn -0.936150 -0.351600 0.000000
vn -0.936150 -0.351600 0.000000
vn 0.000000 -1.000000 0.000000
vn 0.000000 -1.000000 0.000000
vn 0.000000 -1.000000 0.000000
vn 0.000000 -1.000000 0.000000
vn 1.000000 0.000000 0.000000
vn 1.000000 0.000000 0.000000
vn 1.000000 0.000000 0.000000
vn 1.000000 0.000000 0.000000
vn 0.000000 1.000000 0.000000
vn 0.000000 1.000000 0.000000
vn 0.000000 1.000000 0.000000
vn 0.000000 1.000000 0.000000
vn 1.000000 0.000000 0.000000
vn 1.000000 0.000000 0.000000
vn 1.000000 0.000000 0.000000
vn 1.000000 0.000000 0.000000
vn 0.000000 -1.000000 0.000000
vn 0.000000 -1.000000 0.000000
vn 0.000000 -1.000000 0.000000
vn 0.000000 -1.000000 0.000000
vn 0.000000 0.000000 1.000000
vn 0.000000 0.000000 1.000000
vn 0.000000 0.000000 1.000000
vn 0.000000 0.000000 1.000000
vn 0.000000 0.000000 1.000000
vn 0.000000 0.000000 1.000000
vn 0.000000 0.000000 1.000000
vn 0.000000 0.000000 1.000000
vn 0.000000 0.000000 1.000000
vn 0.000000 0.000000 1.000000
vn 0.000000 0.000000 1.000000
vn 0.000000 0.000000 1.000000
vn 0.000000 0.000000 1.000000
vn 0.000000 0.000000 1.000000
vn 0.000000 0.000000 1.000000
vn 0.000000 0.000000 1.000000
vn 0.000000 0.000000 1.000000
vn 0.000000 0.000000 1.000000
vn 0.000000 0.000000 1.000000
vn 0.000000 0.000000 1.000000
vn 0.000000 0.000000 1.000000
vn 0.000000 0.000000 1.000000
vn 0.000000 0.000000 1.000000
vn 0.000000 0.000000 1.000000
vn 0.000000 0.000000 1.000000
vn 0.000000 0.000000 1.000000
vn 0.000000 0.000000 1.000000
vn 0.000000 0.000000 -1.000000
vn 0.000000 0.000000 -1.000000
vn 0.000000 0.000000 -1.000000
vn 0.000000 0.000000 -1.000000
vn 0.000000 0.000000 -1.000000
vn 0.000000 0.000000 -1.000000
vn 0.000000 0.000000 -1.000000
vn 0.000000 0.000000 -1.000000
vn 0.000000 0.000000 -1.000000
vn 0.000000 0.000000 -1.000000
vn 0.000000 0.000000 -1.000000
vn 0.000000 0.000000 -1.000000
vn 0.000000 0.000000 -1.000000
vn 0.000000 0.000000 -1.000000
vn 0.000000 0.000000 -1.000000
vn 0.000000 0.000000 -1.000000
vn 0.000000 0.000000 -1.000000
vn 0.000000 0.000000 -1.000000
vn 0.000000 0.000000 -1.000000
vn 0.000000 0.000000 -1.000000
vn 0.000000 0.000000 -1.000000
vn 0.000000 0.000000 -1.000000
vn -0.000000 0.000000 -1.000000
vn -0.000000 0.000000 -1.000000
vn 0.000000 0.000000 -1.000000
vn 0.000000 0.000000 -1.000000
vn 0.000000 0.000000 -1.000000
s 1
g M:Extrude M:polySurface1 group
usemtl initialShadingGroup
f 2/3/1 29/31/2 1/2/3
f 1/2/3 29/31/2 28/30/4
s 2
f 3/4/5 30/32/6 2/3/7
f 2/3/7 30/32/6 29/31/8
s 3
f 4/5/9 31/33/10 3/4/11
f 3/4/11 31/33/10 30/32/12
s 4
f 5/6/13 32/34/14 4/5/15
f 4/5/15 32/34/14 31/33/16
s 5
f 6/7/17 33/35/18 5/6/19
f 5/6/19 33/35/18 32/34/20
s 6
f 7/8/21 34/36/22 6/7/23
f 6/7/23 34/36/22 33/35/24
s 7
f 8/9/25 35/37/26 7/8/27
f 7/8/27 35/37/26 34/36/28
s 8
f 9/10/29 36/38/30 8/9/31
f 8/9/31 36/38/30 35/37/32
s 9
f 10/11/33 37/39/34 9/10/35
f 9/10/35 37/39/34 36/38/36
s 10
f 11/12/37 38/40/38 10/11/39
f 10/11/39 38/40/38 37/39/40
s 11
f 12/13/41 39/41/42 11/12/43
f 11/12/43 39/41/42 38/40/44
s 12
f 13/14/45 40/42/46 12/13/47
f 12/13/47 40/42/46 39/41/48
s 13
f 14/15/49 41/43/50 13/14/51
f 13/14/51 41/43/50 40/42/52
s 14
f 15/16/53 42/44/54 14/15/55
f 14/15/55 42/44/54 41/43/56
s 15
f 16/17/57 43/45/58 15/16/59
f 15/16/59 43/45/58 42/44/60
s 16
f 17/18/61 44/46/62 16/17/63
f 16/17/63 44/46/62 43/45/64
s 17
f 18/19/65 45/47/66 17/18/67
f 17/18/67 45/47/66 44/46/68
s 18
f 19/20/69 46/48/70 18/19/71
f 18/19/71 46/48/70 45/47/72
s 19
f 20/21/73 47/49/74 19/20/75
f 19/20/75 47/49/74 46/48/76
s 20
f 21/22/77 48/50/78 20/21/79
f 20/21/79 48/50/78 47/49/80
s 21
f 22/23/81 49/51/82 21/22/83
f 21/22/83 49/51/82 48/50/84
s 22
f 23/24/85 50/52/86 22/23/87
f 22/23/87 50/52/86 49/51/88
s 23
f 24/25/89 51/53/90 23/24/91
f 23/24/91 51/53/90 50/52/92
s 24
f 25/26/93 52/54/94 24/25/95
f 24/25/95 52/54/94 51/53/96
s 25
f 26/27/97 53/55/98 25/26/99
f 25/26/99 53/55/98 52/54/100
s 26
f 27/28/101 54/56/102 26/27/103
f 26/27/103 54/56/102 53/55/104
s 27
f 1/1/105 28/29/106 27/28/107
f 27/28/107 28/29/106 54/56/108
s 28
g M:Cap_1 M:Extrude M:polySurface1 group
f 81/83/109 80/82/110 55/57/111
f 80/82/110 79/81/112 55/57/111
f 71/73/113 70/72/114 72/74/115
f 70/72/114 69/71/116 72/74/115
f 68/70/117 67/69/118 69/71/116
f 69/71/116 67/69/118 72/74/115
f 72/74/115 67/69/118 73/75/119
f 67/69/118 66/68/120 73/75/119
f 65/67/121 64/66/122 66/68/120
f 64/66/122 63/65/123 66/68/120
f 66/68/120 63/65/123 73/75/119
f 73/75/119 63/65/123 74/76/124
f 63/65/123 62/64/125 74/76/124
f 74/76/124 62/64/125 75/77/126
f 75/77/126 62/64/125 76/78/127
f 76/78/127 62/64/125 77/79/128
f 62/64/125 61/63/129 77/79/128
f 61/63/129 60/62/130 77/79/128
f 77/79/128 60/62/130 78/80/131
f 59/61/132 58/60/133 60/62/130
f 60/62/130 58/60/133 78/80/131
f 78/80/131 58/60/133 79/81/112
f 58/60/133 57/59/134 79/81/112
f 79/81/112 57/59/134 55/57/111
f 57/59/134 56/58/135 55/57/111
s 31
g M:Cap_2 M:Extrude M:polySurface1 group
f 83/85/136 84/86/137 82/84/138
f 82/84/138 84/86/137 108/110/139
f 86/88/140 87/89/141 85/87/142
f 87/89/141 88/90/143 85/87/142
f 91/93/144 92/94/145 90/92/146
f 92/94/145 93/95/147 90/92/146
f 95/97/148 96/98/149 94/96/150
f 96/98/149 97/99/151 94/96/150
f 98/100/152 99/101/153 97/99/151
f 97/99/151 99/101/153 94/96/150
f 94/96/150 99/101/153 93/95/147
f 99/101/153 100/102/154 93/95/147
f 93/95/147 100/102/154 90/92/146
f 100/102/154 101/103/155 90/92/146
f 90/92/146 101/103/155 89/91/156
f 101/103/155 102/104/157 89/91/156
f 102/104/157 103/105/158 89/91/156
f 103/105/158 104/106/159 89/91/156
f 89/91/156 104/106/159 88/90/143
f 107/109/160 108/110/139 106/108/161
f 108/110/139 84/86/137 106/108/161
f 84/86/137 85/87/142 106/108/161
f 106/108/161 85/87/142 105/107/162
f 85/87/142 88/90/143 105/107/162
f 88/90/143 104/106/159 105/107/162
